{
  "accessors": [
    {
      "bufferView": 2,
      "componentType": 5126,
      "count": 2472,
      "max": [
        1.513962745666504,
        1.2956552505493164,
        2.2088334560394287
      ],
      "min": [
        -1.5108790397644043,
        -3.59864685606226e-07,
        -2.5397980213165283
      ],
      "type": "VEC3"
    },
    {
      "bufferView": 2,
      "byteOffset": 29664,
      "componentType": 5126,
      "count": 2472,
      "max": [
        1.0,
        1.0,
        1.0
      ],
      "min": [
        -1.0,
        -1.0,
        -1.0
      ],
      "type": "VEC3"
    },
    {
      "bufferView": 1,
      "componentType": 5126,
      "count": 2472,
      "max": [
        0.9936073422431946,
        0.984711229801178
      ],
      "min": [
        0.026298323646187782,
        0.018155060708522797
      ],
      "type": "VEC2"
    },
    {
      "bufferView": 1,
      "byteOffset": 19776,
      "componentType": 5126,
      "count": 2472,
      "max": [
        0.9885478019714355,
        0.9672493934631348
      ],
      "min": [
        0.01419023610651493,
        0.013895133510231972
      ],
      "type": "VEC2"
    },
    {
      "bufferView": 0,
      "componentType": 5125,
      "count": 4788,
      "type": "SCALAR"
    },
    {
      "bufferView": 2,
      "byteOffset": 59328,
      "componentType": 5126,
      "count": 227,
      "max": [
        1.5087485313415527,
        1.368984580039978,
        3.0012526512145996
      ],
      "min": [
        -1.5117883682250977,
        0.004967823624610901,
        -2.5475502014160156
      ],
      "type": "VEC3"
    },
    {
      "bufferView": 2,
      "byteOffset": 62052,
      "componentType": 5126,
      "count": 227,
      "max": [
        0.39562854170799255,
        1.0,
        0.32738009095191956
      ],
      "min": [
        -0.3790113925933838,
        0.0,
        -1.0
      ],
      "type": "VEC3"
    },
    {
      "bufferView": 1,
      "byteOffset": 39552,
      "componentType": 5126,
      "count": 227,
      "max": [
        0.980380654335022,
        0.9878754615783691
      ],
      "min": [
        0.02384456992149353,
        0.01997574418783188
      ],
      "type": "VEC2"
    },
    {
      "bufferView": 1,
      "byteOffset": 41368,
      "componentType": 5126,
      "count": 227,
      "max": [
        0.980513870716095,
        0.9834258556365967
      ],
      "min": [
        0.021868806332349777,
        0.021932287141680717
      ],
      "type": "VEC2"
    },
    {
      "bufferView": 0,
      "byteOffset": 19152,
      "componentType": 5125,
      "count": 498,
      "type": "SCALAR"
    },
    {
      "bufferView": 2,
      "byteOffset": 64776,
      "componentType": 5126,
      "count": 11967,
      "max": [
        1.4165197610855103,
        1.3464423418045044,
        2.329197406768799
      ],
      "min": [
        -1.474652647972107,
        -0.053375985473394394,
        -2.4923367500305176
      ],
      "type": "VEC3"
    },
    {
      "bufferView": 2,
      "byteOffset": 208380,
      "componentType": 5126,
      "count": 11967,
      "max": [
        1.0,
        1.0,
        1.0
      ],
      "min": [
        -1.0,
        -1.0,
        -1.0
      ],
      "type": "VEC3"
    },
    {
      "bufferView": 1,
      "byteOffset": 43184,
      "componentType": 5126,
      "count": 11967,
      "max": [
        0.9902358651161194,
        0.9909108281135559
      ],
      "min": [
        0.007959909737110138,
        0.019602423533797264
      ],
      "type": "VEC2"
    },
    {
      "bufferView": 1,
      "byteOffset": 138920,
      "componentType": 5126,
      "count": 11967,
      "max": [
        0.999500036239624,
        0.9905246496200562
      ],
      "min": [
        0.0005000000237487257,
        0.0005000000237487257
      ],
      "type": "VEC2"
    },
    {
      "bufferView": 0,
      "byteOffset": 21144,
      "componentType": 5125,
      "count": 24507,
      "type": "SCALAR"
    }
  ],
  "asset": {
    "extras": {
      "author": "Jokim (https://sketchfab.com/Joaquim.Falo)",
      "license": "CC-BY-4.0 (http://creativecommons.org/licenses/by/4.0/)",
      "source": "https://sketchfab.com/3d-models/the-trees-dungeon-e225326137524a5a94ce8eb756370d47",
      "title": "The Tree's Dungeon"
    },
    "generator": "Sketchfab-12.68.0",
    "version": "2.0"
  },
  "bufferViews": [
    {
      "buffer": 0,
      "byteLength": 119172,
      "name": "floatBufferViews",
      "target": 34963
    },
    {
      "buffer": 0,
      "byteLength": 234656,
      "byteOffset": 119172,
      "byteStride": 8,
      "name": "floatBufferViews",
      "target": 34962
    },
    {
      "buffer": 0,
      "byteLength": 351984,
      "byteOffset": 353828,
      "byteStride": 12,
      "name": "floatBufferViews",
      "target": 34962
    }
  ],
  "buffers": [
    {
      "byteLength": 705812,
      "uri": "scene.bin"
    }
  ],
  "extensionsRequired": [
    "KHR_materials_pbrSpecularGlossiness"
  ],
  "extensionsUsed": [
    "KHR_materials_pbrSpecularGlossiness"
  ],
  "images": [
    {
      "uri": "textures/mat_01_diffuse.png"
    },
    {
      "uri": "textures/Material_14_diffuse.png"
    },
    {
      "uri": "textures/mat_03_diffuse.png"
    }
  ],
  "materials": [
    {
      "alphaMode": "MASK",
      "extensions": {
        "KHR_materials_pbrSpecularGlossiness": {
          "diffuseFactor": [
            1.0,
            1.0,
            1.0,
            1.0
          ],
          "diffuseTexture": {
            "index": 0
          },
          "glossinessFactor": 0.05900000000000005,
          "specularFactor": [
            0.0,
            0.0,
            0.0
          ]
        }
      },
      "name": "mat_01"
    },
    {
      "alphaMode": "BLEND",
      "doubleSided": true,
      "extensions": {
        "KHR_materials_pbrSpecularGlossiness": {
          "diffuseFactor": [
            1.0,
            1.0,
            1.0,
            1.0
          ],
          "diffuseTexture": {
            "index": 1
          },
          "glossinessFactor": 0.0,
          "specularFactor": [
            0.0,
            0.0,
            0.0
          ]
        }
      },
      "name": "Material_14"
    },
    {
      "doubleSided": true,
      "extensions": {
        "KHR_materials_pbrSpecularGlossiness": {
          "diffuseFactor": [
            1.0,
            1.0,
            1.0,
            1.0
          ],
          "diffuseTexture": {
            "index": 2
          },
          "glossinessFactor": 0.05900000000000005,
          "specularFactor": [
            0.0,
            0.0,
            0.0
          ]
        }
      },
      "name": "mat_03"
    }
  ],
  "meshes": [
    {
      "name": "Object_0",
      "primitives": [
        {
          "attributes": {
            "NORMAL": 1,
            "POSITION": 0,
            "TEXCOORD_0": 2,
            "TEXCOORD_1": 3
          },
          "indices": 4,
          "material": 0,
          "mode": 4
        }
      ]
    },
    {
      "name": "Object_1",
      "primitives": [
        {
          "attributes": {
            "NORMAL": 6,
            "POSITION": 5,
            "TEXCOORD_0": 7,
            "TEXCOORD_1": 8
          },
          "indices": 9,
          "material": 1,
          "mode": 4
        }
      ]
    },
    {
      "name": "Object_2",
      "primitives": [
        {
          "attributes": {
            "NORMAL": 11,
            "POSITION": 10,
            "TEXCOORD_0": 12,
            "TEXCOORD_1": 13
          },
          "indices": 14,
          "material": 2,
          "mode": 4
        }
      ]
    }
  ],
  "nodes": [
    {
      "children": [
        1
      ],
      "matrix": [
        1.0,
        0.0,
        0.0,
        0.0,
        0.0,
        2.220446049250313e-16,
        -1.0,
        0.0,
        0.0,
        1.0,
        2.220446049250313e-16,
        0.0,
        0.0,
        0.0,
        0.0,
        1.0
      ],
      "name": "Sketchfab_model"
    },
    {
      "children": [
        2
      ],
      "name": "root"
    },
    {
      "children": [
        3,
        5,
        7
      ],
      "matrix": [
        1.0,
        0.0,
        0.0,
        0.0,
        0.0,
        2.220446049250313e-16,
        1.0,
        0.0,
        0.0,
        -1.0,
        2.220446049250313e-16,
        0.0,
        0.0,
        0.0,
        0.0,
        1.0
      ],
      "name": "GLTF_SceneRootNode"
    },
    {
      "children": [
        4
      ],
      "name": "pilier_0"
    },
    {
      "mesh": 0,
      "name": "Object_4"
    },
    {
      "children": [
        6
      ],
      "name": "0_scene2_1"
    },
    {
      "mesh": 1,
      "name": "Object_6"
    },
    {
      "children": [
        8
      ],
      "name": "scene1_2"
    },
    {
      "mesh": 2,
      "name": "Object_8"
    }
  ],
  "samplers": [
    {
      "magFilter": 9729,
      "minFilter": 9729,
      "wrapS": 10497,
      "wrapT": 10497
    }
  ],
  "scene": 0,
  "scenes": [
    {
      "name": "Sketchfab_Scene",
      "nodes": [
        0
      ]
    }
  ],
  "textures": [
    {
      "sampler": 0,
      "source": 0
    },
    {
      "sampler": 0,
      "source": 1
    },
    {
      "sampler": 0,
      "source": 2
    }
  ]
}
